<svg xmlns="http://www.w3.org/2000/svg" viewBox="0 0 320 220">
  <defs>
    <linearGradient id="bg" x1="0" y1="0" x2="1" y2="1">
      <stop offset="0" stop-color="#edf8ef"/>
      <stop offset="1" stop-color="#ffffff"/>
    </linearGradient>
    <linearGradient id="orange" x1="0" y1="0" x2="1" y2="1">
      <stop offset="0" stop-color="#ffb24b"/>
      <stop offset="1" stop-color="#f27e26"/>
    </linearGradient>
    <linearGradient id="leaf" x1="0" y1="0" x2="1" y2="1">
      <stop offset="0" stop-color="#5aac63"/>
      <stop offset="1" stop-color="#2f8f46"/>
    </linearGradient>
  </defs>
  <rect width="320" height="220" rx="28" fill="url(#bg)"/>
  <ellipse cx="160" cy="180" rx="85" ry="14" fill="#dfeae0"/>
  <ellipse cx="160" cy="152" rx="82" ry="44" fill="#f8fbf8" stroke="#e2ebe3" stroke-width="7"/>
  <circle cx="114" cy="116" r="42" fill="url(#orange)"/>
  <circle cx="176" cy="99" r="47" fill="#8fc45d"/>
  <circle cx="225" cy="127" r="40" fill="#ff9d30"/>
  <path d="M171 54c12-19 34-23 51-17-7 20-27 31-51 27z" fill="url(#leaf)"/>
  <path d="M105 76c-11-19-3-36 14-46 14 15 11 36-14 46z" fill="url(#leaf)"/>
  <circle cx="120" cy="104" r="5" fill="#ffd58d" opacity=".65"/>
  <circle cx="181" cy="85" r="6" fill="#dff1b7" opacity=".55"/>
  <circle cx="231" cy="113" r="5" fill="#ffd38a" opacity=".6"/>
</svg>