<svg xmlns="http://www.w3.org/2000/svg" viewBox="0 0 420 300">
  <defs>
    <linearGradient id="card" x1="0" y1="0" x2="1" y2="1">
      <stop offset="0" stop-color="#ffffff"/>
      <stop offset="1" stop-color="#eef7ef"/>
    </linearGradient>
    <linearGradient id="green" x1="0" y1="0" x2="1" y2="1">
      <stop offset="0" stop-color="#6fc47d"/>
      <stop offset="1" stop-color="#2f8f46"/>
    </linearGradient>
  </defs>
  <rect x="58" y="43" width="304" height="205" rx="28" fill="url(#card)" stroke="#deeadf" stroke-width="6"/>
  <rect x="84" y="77" width="122" height="112" rx="18" fill="#f2f8f2"/>
  <circle cx="145" cy="118" r="30" fill="url(#green)"/>
  <path d="M130 116c0-13 9-25 24-31 9 13 10 25 2 36-8 11-18 17-30 14-5-5-6-11-6-19z" fill="#f9fff9" opacity=".96"/>
  <path d="M133 95c4-12 16-20 29-22" fill="none" stroke="#2f8f46" stroke-width="5" stroke-linecap="round"/>
  <rect x="227" y="84" width="108" height="18" rx="9" fill="#e3eee4"/>
  <rect x="227" y="113" width="82" height="13" rx="6.5" fill="#edf3ee"/>
  <rect x="227" y="139" width="100" height="13" rx="6.5" fill="#edf3ee"/>
  <rect x="227" y="165" width="62" height="28" rx="10" fill="#eaf7ed"/>
  <rect x="298" y="165" width="29" height="28" rx="10" fill="#2f8f46"/>
  <path d="M310 179l6 6 10-13" fill="none" stroke="#ffffff" stroke-width="4" stroke-linecap="round" stroke-linejoin="round"/>
  <circle cx="86" cy="232" r="26" fill="#2f8f46"/>
  <path d="M76 232l7 7 15-17" fill="none" stroke="#ffffff" stroke-width="5" stroke-linecap="round" stroke-linejoin="round"/>
</svg>